<svg width="100%" height="100%" id="svg" viewBox="0 0 1440 490" xmlns="http://www.w3.org/2000/svg" class="transition duration-300 ease-in-out delay-150"><defs><linearGradient id="gradient" x1="1%" y1="40%" x2="99%" y2="60%"><stop offset="5%" stop-color="#fce7f3"></stop><stop offset="95%" stop-color="#e9d5ff"></stop></linearGradient></defs><path d="M 0,500 C 0,500 0,166 0,166 C 69.78947368421055,161.83732057416267 139.5789473684211,157.67464114832538 237,164 C 334.4210526315789,170.32535885167462 459.47368421052636,187.13875598086125 561,180 C 662.5263157894736,172.86124401913875 740.5263157894739,141.77033492822966 850,123 C 959.4736842105261,104.22966507177034 1100.4210526315787,97.7799043062201 1204,107 C 1307.5789473684213,116.2200956937799 1373.7894736842106,141.11004784688996 1440,166 C 1440,166 1440,500 1440,500 Z" stroke="none" stroke-width="0" fill="url(#gradient)" fill-opacity="0.53" class="transition-all duration-300 ease-in-out delay-150 path-0"></path><defs><linearGradient id="gradient" x1="1%" y1="40%" x2="99%" y2="60%"><stop offset="5%" stop-color="#fce7f3"></stop><stop offset="95%" stop-color="#e9d5ff"></stop></linearGradient></defs><path d="M 0,500 C 0,500 0,333 0,333 C 107.85645933014354,362.7894736842105 215.71291866028707,392.5789473684211 311,391 C 406.2870813397129,389.4210526315789 489.0047846889953,356.4736842105263 569,351 C 648.9952153110047,345.5263157894737 726.2679425837321,367.5263157894737 825,370 C 923.7320574162679,372.4736842105263 1043.9234449760766,355.4210526315789 1150,346 C 1256.0765550239234,336.5789473684211 1348.0382775119617,334.7894736842105 1440,333 C 1440,333 1440,500 1440,500 Z" stroke="none" stroke-width="0" fill="url(#gradient)" fill-opacity="1" class="transition-all duration-300 ease-in-out delay-150 path-1"></path></svg>
