<svg width="100%" height="100%" id="svg" viewBox="0 0 1440 590" xmlns="http://www.w3.org/2000/svg" class="transition duration-300 ease-in-out delay-150"><defs><linearGradient id="gradient" x1="0%" y1="50%" x2="100%" y2="50%"><stop offset="5%" stop-color="#F78DA7"></stop><stop offset="95%" stop-color="#8ED1FC"></stop></linearGradient></defs><path d="M 0,600 C 0,600 0,200 0,200 C 89.93301435406698,173.6555023923445 179.86602870813397,147.31100478468898 274,149 C 368.13397129186603,150.68899521531102 466.46889952153106,180.41148325358853 555,203 C 643.5311004784689,225.58851674641147 722.2583732057418,241.0430622009569 818,253 C 913.7416267942582,264.9569377990431 1026.4976076555024,273.4162679425837 1133,264 C 1239.5023923444976,254.58373205741628 1339.751196172249,227.29186602870814 1440,200 C 1440,200 1440,600 1440,600 Z" stroke="none" stroke-width="0" fill="url(#gradient)" fill-opacity="0.53" class="transition-all duration-300 ease-in-out delay-150 path-0"></path><defs><linearGradient id="gradient" x1="0%" y1="50%" x2="100%" y2="50%"><stop offset="5%" stop-color="#F78DA7"></stop><stop offset="95%" stop-color="#8ED1FC"></stop></linearGradient></defs><path d="M 0,600 C 0,600 0,400 0,400 C 94.91866028708134,388.01913875598086 189.83732057416267,376.0382775119618 300,381 C 410.1626794258373,385.9617224880382 535.5693779904307,407.86602870813397 616,416 C 696.4306220095693,424.13397129186603 731.8851674641148,418.4976076555024 814,412 C 896.1148325358852,405.5023923444976 1024.88995215311,398.14354066985646 1137,396 C 1249.11004784689,393.85645933014354 1344.5550239234449,396.92822966507174 1440,400 C 1440,400 1440,600 1440,600 Z" stroke="none" stroke-width="0" fill="url(#gradient)" fill-opacity="1" class="transition-all duration-300 ease-in-out delay-150 path-1"></path></svg>
