<svg width="1612" height="215" viewBox="0 0 1612 215" fill="none" xmlns="http://www.w3.org/2000/svg">
<path fill-rule="evenodd" clip-rule="evenodd" d="M0 0L1.46765 0.105878C29.4765 2.12648 72.8623 6.34049 112.83 16.0491C152.484 25.6813 188.941 40.7651 203.522 64.5641C214.304 63.6485 230.675 63.8652 246.281 67.3829C262.174 70.9654 277.227 77.9639 284.731 90.5898C285.082 90.4999 285.495 90.3953 285.969 90.278C287.665 89.8581 290.133 89.2749 293.234 88.6181C299.433 87.305 308.174 85.695 318.343 84.5081C338.373 82.1705 364.134 81.4534 386.897 88.0059C397.911 81.3453 418.168 71.6206 444.152 63.4898C470.69 55.1856 503.295 48.5159 538.194 48.5159C578.519 48.5159 621.36 55.9617 656.069 68.302C690.573 80.5697 717.173 97.7244 725.173 117.305C735.507 106.246 767.136 89.9539 830.318 94.1785C841.668 78.652 881.514 48.5159 953.777 48.5159C1025.51 48.5159 1067.82 76.0618 1080.79 90.5415C1085.44 88.9088 1092.35 86.966 1099.44 85.9452C1106.47 84.9308 1114.06 84.7795 1119.65 87.0125C1138.32 57.6531 1208.51 0.771973 1346.13 0.771973C1482.29 0.771973 1532.91 31.5427 1541.81 48.1185C1542.01 48.0488 1542.23 47.9733 1542.46 47.8922C1543.17 47.6407 1544.03 47.3363 1545.04 46.9882C1547.38 46.1839 1550.38 45.1919 1553.79 44.2267C1560.56 42.3077 1569.08 40.4465 1577.15 40.4465C1587.27 40.4465 1595.95 43.0779 1602.06 46.0034C1605.13 47.4698 1607.58 49.0267 1609.27 50.4007C1610.12 51.0875 1610.79 51.7376 1611.25 52.3158C1611.7 52.8803 1612 53.4285 1612 53.8954V214.611H0V0ZM724.816 117.695L722.781 117.914C715.124 98.6331 688.946 81.6193 654.614 69.4129C620.288 57.2088 577.948 49.8608 538.194 49.8608C503.915 49.8608 471.772 56.4158 445.481 64.6427C419.19 72.8694 398.841 82.7397 388.174 89.2975L387.481 89.7239L386.549 89.4466C364.368 82.8425 338.935 83.483 318.907 85.8205C308.91 86.9873 300.308 88.5714 294.206 89.864C291.156 90.51 288.733 91.0826 287.077 91.4928C286.249 91.6978 285.612 91.8622 285.185 91.9748C284.971 92.0311 284.809 92.0744 284.702 92.1034L284.583 92.1359L284.554 92.1438L284.548 92.1456L283.145 92.5354L282.7 91.7409C275.587 79.0342 260.812 72.1237 245.256 68.6172C229.644 65.0981 213.196 64.9995 202.862 65.9885L201.736 66.0963L201.396 65.5261C187.35 41.9072 151.363 26.8929 111.74 17.268C72.8066 7.81084 30.5271 3.59933 2.58126 1.54495V213.266H1609.42V53.8954C1609.42 53.6899 1609.27 53.3346 1608.87 52.8326C1608.48 52.3443 1607.89 51.7651 1607.1 51.128C1605.53 49.8543 1603.22 48.3851 1600.32 46.9937C1594.49 44.2033 1586.4 41.7914 1577.15 41.7914C1569.74 41.7914 1561.7 43.5165 1555.02 45.4081C1551.71 46.3481 1548.77 47.3174 1546.47 48.1102C1545.59 48.4133 1544.78 48.698 1544.07 48.9465C1542.98 49.3304 1542.14 49.6277 1541.66 49.7722L1540.16 50.2172L1539.76 49.3449C1532.64 33.8451 1484.14 2.11687 1346.13 2.11687C1208.57 2.11687 1139.05 59.6182 1121.5 88.394L1120.86 89.4474L1119.36 88.6658C1114.71 86.2426 1107.58 86.1667 1100.12 87.2414C1092.73 88.3073 1085.44 90.4498 1081.01 92.0998L1079.72 92.5788L1079.08 91.8257C1067.15 77.8413 1025.35 49.8608 953.777 49.8608C882.281 49.8608 843.045 80.0304 832.379 95.1469L832.021 95.6531L830.996 95.5813C762.447 90.7837 731.957 110.445 725.267 120.685L722.823 120.251C723.349 119.446 724.012 118.589 724.816 117.695Z" fill="white"/>
<path d="M722.781 117.914L724.816 117.695C724.012 118.589 723.349 119.446 722.823 120.251L725.267 120.685C731.957 110.445 762.447 90.7837 830.996 95.5813L832.021 95.6531L832.379 95.1469C843.045 80.0304 882.281 49.8608 953.777 49.8608C1025.35 49.8608 1067.15 77.8413 1079.08 91.8257L1079.72 92.5788L1081.01 92.0998C1085.44 90.4498 1092.73 88.3073 1100.12 87.2414C1107.58 86.1667 1114.71 86.2426 1119.36 88.6658L1120.86 89.4474L1121.5 88.394C1139.05 59.6182 1208.57 2.11687 1346.13 2.11687C1484.14 2.11687 1532.64 33.8451 1539.76 49.3449L1540.16 50.2172L1541.66 49.7722C1542.14 49.6277 1542.98 49.3304 1544.07 48.9465C1544.78 48.698 1545.59 48.4133 1546.47 48.1102C1548.77 47.3174 1551.71 46.3481 1555.02 45.4081C1561.7 43.5165 1569.74 41.7914 1577.15 41.7914C1586.4 41.7914 1594.49 44.2033 1600.32 46.9937C1603.22 48.3851 1605.53 49.8543 1607.1 51.128C1607.89 51.7651 1608.48 52.3443 1608.87 52.8326C1609.27 53.3346 1609.42 53.6899 1609.42 53.8954V213.266H2.58126V1.54495C30.5271 3.59933 72.8066 7.81084 111.74 17.268C151.363 26.8929 187.35 41.9072 201.396 65.5261L201.736 66.0963L202.862 65.9885C213.196 64.9995 229.644 65.0981 245.256 68.6172C260.812 72.1237 275.587 79.0342 282.7 91.7409L283.145 92.5354L284.548 92.1456L284.554 92.1438L284.583 92.1359L284.702 92.1034C284.809 92.0744 284.971 92.0311 285.185 91.9748C285.612 91.8622 286.249 91.6978 287.077 91.4928C288.733 91.0826 291.156 90.51 294.206 89.864C300.308 88.5714 308.91 86.9873 318.907 85.8205C338.935 83.483 364.368 82.8425 386.549 89.4466L387.481 89.7239L388.174 89.2975C398.841 82.7397 419.19 72.8694 445.481 64.6427C471.772 56.4158 503.915 49.8608 538.194 49.8608C577.948 49.8608 620.288 57.2088 654.614 69.4129C688.946 81.6193 715.124 98.6331 722.781 117.914Z" fill="#FFFCFC"/>
</svg>
